PathFileType	4	(X/Y/Z)	/Users/visionmauri/Downloads/Videos/OAW09-top_Sports2D/OAW09-top_Sports2D_px_person00.trc
DataRate	CameraRate	NumFrames	NumMarkers	Units	OrigDataRate	OrigDataStartFrame	OrigNumFrames
30.0	30.0	11	22	m	30.0	1548	2065
Frame#	Time	Hip			RHip			RKnee			RAnkle			RBigToe			RSmallToe			RHeel			LHip			LKnee			LAnkle			LBigToe			LSmallToe			LHeel			Neck			Head			Nose			RShoulder			RElbow			RWrist			LShoulder			LElbow			LWrist			
		X1	Y1	Z1	X2	Y2	Z2	X3	Y3	Z3	X4	Y4	Z4	X5	Y5	Z5	X6	Y6	Z6	X7	Y7	Z7	X8	Y8	Z8	X9	Y9	Z9	X10	Y10	Z10	X11	Y11	Z11	X12	Y12	Z12	X13	Y13	Z13	X14	Y14	Z14	X15	Y15	Z15	X16	Y16	Z16	X17	Y17	Z17	X18	Y18	Z18	X19	Y19	Z19	X20	Y20	Z20	X21	Y21	Z21	X22	Y22	Z22
1548	51.62499999999999	517.934643505958	654.307337580444	0.0	500.6749824813209	656.9354886719216	0.0	503.9099705713016	723.0028073431812	0.0	508.80833813730857	784.929844355028	0.0	506.97049724934084	807.4634733228193	0.0	497.57252104784817	804.7733755399097	0.0	511.4102994480282	795.9240202976056	0.0	535.1259603289385	655.3915197774376	0.0	529.1274365625244	723.1270656817247	0.0	529.5369639140328	791.841721107744	0.0	525.6022429090384	815.9078642474886	0.0	537.3207202775022	814.834147718434	0.0	528.5867815334799	802.7878225431809	0.0	517.7968205034226	565.964829607596	0.0	521.220223935245	526.1345775184236	0.0	520.5930362260408	562.5825991749257	0.0	483.1827257170875	569.5870350214501	0.0	466.34801691110675	615.334590816524	0.0	471.23038233021896	657.2404145225624	0.0	553.2288031261877	570.2860815898789	0.0	562.4360185642126	619.451915164392	0.0	561.2195489513151	659.9134520318686	0.0
1549	51.65834948320413	517.92167638709	655.9447853173147	0.0	500.3537630011246	657.6073266352414	0.0	503.79334269825085	723.8853424028064	0.0	508.80882141435495	785.1744578696001	0.0	506.63315945889246	807.0333522393204	0.0	497.1386818846011	804.3356860400795	0.0	511.5194993281833	796.4908825969326	0.0	535.0895515628393	656.8302914593895	0.0	528.6384504174075	725.3859550855215	0.0	529.8685396102279	795.0451147441389	0.0	525.6562896436385	818.5394167725283	0.0	536.9567153281472	817.3752247811427	0.0	528.9256790358583	806.2664672082745	0.0	517.8019937671952	566.8418979422971	0.0	521.6818481397937	528.8293896417634	0.0	521.1820965927316	564.226743267698	0.0	483.3415530481454	570.6053303613015	0.0	466.17833354490205	615.6516868507296	0.0	471.31208103574306	656.4983516000748	0.0	553.675209124386	571.0786220374316	0.0	562.5527562639318	620.4990843747955	0.0	560.8983345327557	660.90100131038	0.0
1550	51.69169896640826	517.9249433003072	658.0449347082683	0.0	500.2156271164281	659.1514174288163	0.0	503.7256062861722	725.3902954636457	0.0	508.34540067697816	785.3406139093357	0.0	506.82325421013957	806.8888399756534	0.0	496.9616450141114	804.2466624035342	0.0	511.2863461894241	796.7991052179657	0.0	535.0971139728841	659.2453462449768	0.0	528.4032407864709	727.980774551463	0.0	529.9926025127355	796.6451022022727	0.0	525.447838719712	819.7795893896393	0.0	536.0442847590838	818.7159662128413	0.0	528.9399425972451	808.0890887738309	0.0	518.0924106934593	566.7206594063678	0.0	522.2630263573092	529.3851038976328	0.0	521.935008582286	564.6664616656108	0.0	483.5868077416075	571.4898149053153	0.0	466.4243420694951	616.3095050784801	0.0	471.4817494682269	656.3594327973494	0.0	554.0453868819538	571.7628320529475	0.0	562.5944101452676	621.5852434596911	0.0	560.7737666808218	662.5493663805462	0.0
1551	51.725048449612395	518.0831018084812	660.2594346816243	0.0	500.3619527105183	661.4171739437794	0.0	503.6698670074779	727.1532990591033	0.0	507.7886661445714	785.3974462337864	0.0	506.9928950727775	807.1936201561554	0.0	496.98345630706046	804.4757850995999	0.0	511.1888421538619	796.4316436447846	0.0	535.2163865328298	661.9512665383004	0.0	528.584949045909	730.8916369696126	0.0	529.6298546244734	798.0851505495973	0.0	525.1180456960523	821.6302125578499	0.0	535.3166585820597	820.6689180457205	0.0	528.0693543894307	809.674895124729	0.0	518.6053732018186	567.6488664326705	0.0	523.1757738431578	528.8777963033328	0.0	522.5893096335352	565.4306698621256	0.0	483.7702731599812	572.7415307504384	0.0	466.54710386506696	617.5675081140251	0.0	471.83331707907337	656.9813804444573	0.0	554.4807983830701	572.9967032428576	0.0	562.9726401667995	623.268247343142	0.0	560.7485819888059	664.8559703344206	0.0
1552	51.75839793281653	518.5772021299971	662.3976745021291	0.0	500.84584337755655	664.01528595943	0.0	503.65627937000187	728.6136094060814	0.0	507.36662650748315	785.4743929911173	0.0	506.7495604826153	807.7914633665008	0.0	496.97316981247576	804.7918624691931	0.0	511.2064044629939	795.6056947122029	0.0	535.6061931129793	664.5724400440656	0.0	529.4910938926213	733.8846841568072	0.0	528.6488150610447	800.3683041345714	0.0	525.0245518298539	825.2060231375104	0.0	535.3424495675282	823.9878728677465	0.0	526.1817297269092	812.0110483561143	0.0	519.2711087128723	570.0333349989645	0.0	524.5266396758773	530.2009031451499	0.0	523.2818101164861	567.2663321632041	0.0	484.0109658942299	574.3873649854687	0.0	466.65938744013545	619.1727703338199	0.0	472.43464684663167	658.2465775678712	0.0	555.2905192668761	575.0560792360006	0.0	563.6963321733725	625.4656716696996	0.0	560.85552909236	667.4773238732371	0.0
1553	51.79174741602066	519.3389265737646	664.0343797337719	0.0	501.43223108259394	666.2698929671034	0.0	503.6789160980551	729.659495869374	0.0	507.08232975284676	785.6259400999193	0.0	506.2527076857094	808.6015672440357	0.0	496.78876920226	805.2456477291188	0.0	511.00575467366724	794.6434574168289	0.0	536.4999641662795	666.6655144885589	0.0	531.0064227336815	736.5132508322297	0.0	527.5357909831174	803.5682390385911	0.0	525.28640073913	829.5689396734058	0.0	535.7679031701213	827.8159890387728	0.0	524.3103400803874	814.9387455720947	0.0	520.1622551326018	572.1956366249385	0.0	525.9192609193834	533.7755859043131	0.0	524.1432398995343	569.4043108432837	0.0	484.6499040836595	575.7866355989287	0.0	467.2235167709403	620.7571989576062	0.0	473.10520006764347	660.1425964910655	0.0	556.4798560431477	577.0788396649684	0.0	564.544381276477	627.3205097941153	0.0	561.3607459135849	669.867706568584	0.0
1554	51.825096899224796	520.0882936715724	664.6627966930366	0.0	501.7507689498209	667.4584147326207	0.0	503.4683796205209	730.633427826933	0.0	506.963526031697	785.4776378684796	0.0	505.90227059564705	809.3962713483777	0.0	496.6130150069012	805.7535262626856	0.0	510.59448321413015	793.253065294678	0.0	537.7426687714252	667.6901621116704	0.0	532.4321162492595	738.308675954661	0.0	526.9240284003903	807.052685933683	0.0	525.5571528441263	832.921262764023	0.0	535.9918372566208	830.788862463809	0.0	523.3950379936146	817.6590481193801	0.0	521.1859382683226	573.0207706234911	0.0	527.0236080115078	537.1373118780157	0.0	525.024176503284	570.6465829090595	0.0	485.58564757294005	576.5298453911619	0.0	468.25387869159476	622.1409277478577	0.0	473.52105377173154	662.7034433232753	0.0	557.705493555707	577.9162775560405	0.0	565.4082463785244	628.2143945303305	0.0	562.4011476517247	671.6125889070535	0.0
1555	51.85844638242893	520.7507162342157	664.559663999728	0.0	501.7824922169733	667.6728532673218	0.0	502.8025432269953	731.9156542249991	0.0	506.9059359951485	784.3899085649323	0.0	505.8946061061651	809.5402718066003	0.0	496.6136221571677	805.6636101878289	0.0	510.13126535522593	790.8044974816421	0.0	538.8576793831136	667.9399135422032	0.0	533.3193815248802	739.3088757081152	0.0	526.848804045361	809.9694248432354	0.0	525.5444362880563	834.4581404337297	0.0	535.8700923539128	832.2468372464497	0.0	523.1507971337235	819.6340373341457	0.0	522.0868215364123	572.9474784987001	0.0	527.9639017762836	538.6077373724436	0.0	525.8904313818575	571.0341964195312	0.0	486.3838064423	576.7548911111055	0.0	469.3595221114561	623.3897471311055	0.0	473.64064675876114	665.6029810098833	0.0	558.7048509114487	577.5261871526407	0.0	566.3086541500004	628.3923329660637	0.0	563.775010322953	672.6274650359026	0.0
1556	51.891795865633064	521.4555426332574	664.6507239021979	0.0	501.6910918321455	667.6261997663543	0.0	501.878170096438	733.653676651291	0.0	506.62130853339687	782.2888866977075	0.0	506.0798695952711	808.6733979799499	0.0	496.5142773148757	804.5390476442117	0.0	509.49544048287146	787.1701633771877	0.0	539.8273742869407	668.116098706044	0.0	533.89783290227	740.1541594194725	0.0	526.9660494762229	811.8199341312961	0.0	525.2357222834975	834.7557243036808	0.0	535.4703288102199	832.5091497860682	0.0	522.931793293347	820.8094813133052	0.0	522.7710983438716	572.7094679114563	0.0	528.7565982129094	538.8546210297426	0.0	526.7714569068605	571.6157519106105	0.0	486.8824364160887	576.5266482763376	0.0	470.3524701664794	624.631315869711	0.0	473.701908072398	668.2192186875018	0.0	559.4781287767069	576.7037374860643	0.0	567.3694410419386	628.4333366068599	0.0	565.2492067811786	673.2293654370148	0.0
1557	51.9251453488372	522.1609194946192	665.3685718143453	0.0	501.70118814442446	667.6711947033541	0.0	501.16668136319714	735.4743454353664	0.0	506.1274508944459	780.0132899154024	0.0	505.8056058968899	807.4339161275718	0.0	495.74926685051224	802.9218291243201	0.0	508.8108018184458	783.3544594965648	0.0	540.8486613389991	668.2656132066838	0.0	534.4688806657039	741.3273939232539	0.0	527.046885783797	812.6186034856872	0.0	524.8413686858083	834.7217475859152	0.0	534.9156240443955	832.3832215951846	0.0	522.7042765353555	821.3249982694101	0.0	523.3399740027518	572.6705921363389	0.0	529.1609248327607	539.0081405561973	0.0	527.3910970077138	572.5000763022507	0.0	487.175898580187	575.7897736863517	0.0	471.3652408601242	625.7565348732379	0.0	473.8306603600981	670.1802448343095	0.0	560.1442057793296	575.9277621116108	0.0	568.7810306132493	628.6755921423758	0.0	566.8395093791405	673.956046039026	0.0
1558	51.95849483204133	522.6909720979569	666.4241158622063	0.0	502.22517688482685	667.8913225482038	0.0	501.0540020766127	736.7487941587103	0.0	505.8837852279982	778.830625673226	0.0	504.353670569475	807.2344164672163	0.0	494.1313436155251	802.2548376776326	0.0	508.6122162986171	781.2874758559491	0.0	541.612191040663	668.3130283910651	0.0	534.8916915983929	742.692725541629	0.0	527.0196762922396	812.663862941608	0.0	524.6955827130289	834.8281760719159	0.0	534.507266442256	832.5440926731363	0.0	522.793610143348	821.3614817486991	0.0	524.0106511302322	572.6516825368731	0.0	529.2041023372259	538.0296156437172	0.0	527.5836657619935	572.4293745805336	0.0	487.38420228560784	574.7477170262205	0.0	472.4464157208086	626.7376840692374	0.0	473.9353638386577	671.9245479286823	0.0	560.9274843477336	575.1222087747201	0.0	570.4907595509873	628.9484535369975	0.0	568.6831498640973	674.9268140254112	0.0
